<svg id="SvgjsSvg1043" width="288" height="288" xmlns="http://www.w3.org/2000/svg" version="1.1" xmlns:xlink="http://www.w3.org/1999/xlink" xmlns:svgjs="http://svgjs.com/svgjs"><circle id="SvgjsCircle1065" r="144" cx="144" cy="144" transform="matrix(0.76,0,0,0.76,34.56,34.56)" fill="#045478"></circle><defs id="SvgjsDefs1044"></defs><g id="SvgjsG1045" transform="matrix(0.45,0,0,0.45,79.19969708919525,79.2009268283844)"><svg xmlns="http://www.w3.org/2000/svg" xmlns:xlink="http://www.w3.org/1999/xlink" viewBox="0 0 512 512" width="288" height="288"><defs><linearGradient id="a" x1="255.999" x2="255.999" y1="504" y2="15.984" gradientTransform="matrix(1 0 0 -1 0 514)" gradientUnits="userSpaceOnUse"><stop offset="0" stop-color="#98fff3" class="svgShape stopColor00efd1-2"></stop><stop offset="1" stop-color="#7ac5e0" class="svgShape stopColor00acea-3"></stop></linearGradient><linearGradient id="b" x1="380.597" x2="380.597" y2="15.984" xlink:href="#a"></linearGradient><linearGradient id="c" x1="132.628" x2="132.628" y2="15.984" xlink:href="#a"></linearGradient><linearGradient id="d" x1="132.628" x2="132.628" y2="15.984" xlink:href="#a"></linearGradient><linearGradient id="e" x1="380.598" x2="380.598" y2="15.984" xlink:href="#a"></linearGradient><linearGradient id="f" x1="256.613" x2="256.613" y2="15.984" xlink:href="#a"></linearGradient><linearGradient id="g" x1="255.372" x2="255.372" y2="15.984" xlink:href="#a"></linearGradient></defs><path fill="url(#a)" d="M496.514,249.164h-43.04c-3.635-103.056-86.8-186.211-189.861-189.831V16.1a7,7,0,0,0-14,0V59.333C146.553,62.952,63.387,146.107,59.752,249.164H15.486a7,7,0,1,0,0,14H59.749c3.6,103.085,86.782,186.274,189.863,189.894v42.848a7,7,0,1,0,14,0V453.058c103.082-3.62,186.26-86.809,189.863-189.894h43.037a7,7,0,0,0,0-14ZM256.613,439.2c-100.906,0-183-82.093-183-183s82.094-183,183-183,183,82.093,183,183S357.519,439.2,256.613,439.2Z" class="svgShape colorgradient-10 selectable"></path><path fill="url(#b)" d="M285.667,45.161c94.294,12.853,169.126,87.686,181.979,181.979a7,7,0,1,0,13.871-1.89c-13.7-100.5-93.457-180.262-193.959-193.961a7,7,0,0,0-1.891,13.872Z" class="svgShape colorgradient-11 selectable"></path><path fill="url(#c)" d="M227.558,467.229C133.264,454.376,58.431,379.543,45.579,285.25a7,7,0,1,0-13.871,1.89c13.7,100.5,93.458,180.261,193.96,193.96a7.18,7.18,0,0,0,.954.065,7,7,0,0,0,.936-13.936Z" class="svgShape colorgradient-12 selectable"></path><path fill="url(#d)" d="M37.7,233.131a7.18,7.18,0,0,0,.954.065,7,7,0,0,0,6.927-6.056C58.432,132.846,133.265,58.014,227.558,45.161a7,7,0,0,0-1.891-13.872c-100.5,13.7-180.261,93.459-193.96,193.961A7,7,0,0,0,37.7,233.131Z" class="svgShape colorgradient-13 selectable"></path><path fill="url(#e)" d="M475.528,279.259a7.005,7.005,0,0,0-7.881,5.991c-12.853,94.293-87.686,169.126-181.979,181.979a7,7,0,1,0,1.891,13.872c100.5-13.7,180.261-93.458,193.96-193.96A7,7,0,0,0,475.528,279.259Z" class="svgShape colorgradient-14 selectable"></path><path fill="url(#f)" d="M256.613,109.2c-81.056,0-147,65.944-147,147s65.944,147,147,147,147-65.944,147-147S337.669,109.2,256.613,109.2ZM185.405,368.479V323.471a6.959,6.959,0,0,0-.036-.707A29.862,29.862,0,0,1,215.083,289.9h5.538l3.958,8.969a35.166,35.166,0,0,0,64.343,1.245l4.74-10.213h4.49a29.859,29.859,0,0,1,29.7,32.869,6.959,6.959,0,0,0-.036.707V368.48a132.737,132.737,0,0,1-142.415,0Zm156.416-10.248V323.81A43.86,43.86,0,0,0,298.153,275.9H289.2a7,7,0,0,0-6.349,4.053l-6.622,14.266a21.166,21.166,0,0,1-38.746-.794c-.02-.047-.04-.1-.061-.142l-5.829-13.209a7,7,0,0,0-6.4-4.174h-10.1a43.863,43.863,0,0,0-43.678,47.915v34.422A132.772,132.772,0,0,1,123.614,256.2c0-73.336,59.664-133,133-133s133,59.664,133,133A132.772,132.772,0,0,1,341.821,358.231Z" class="svgShape colorgradient-15 selectable"></path><path fill="url(#g)" d="M278.356,169.349a24.909,24.909,0,1,0-45.532-.363,42.284,42.284,0,0,0-19.72,31.819c-.041.409-.116,1.17-.209,31.073a42.478,42.478,0,1,0,84.955,0V205.044A42.471,42.471,0,0,0,278.356,169.349Zm5.494,38.675c-27.752-3.278-42.466-16.335-48.481-23.309a28.521,28.521,0,0,1,48.481,20.329Zm-56.814-5.836,0-.05,0,.05Zm.019-.187a28.778,28.778,0,0,1,.9-4.676,73.88,73.88,0,0,0,6.538,5.858,18.854,18.854,0,0,1-7.5,6.636C227.01,205.83,227.034,202.823,227.055,202Zm17.706-42.944a10.907,10.907,0,1,1,20.724,4.735,42.419,42.419,0,0,0-10.113-1.226,42.976,42.976,0,0,0-9.588,1.083A10.87,10.87,0,0,1,244.761,159.057Zm10.611,101.3A28.505,28.505,0,0,1,226.9,231.9c.007-2.16.015-4.595.025-7.12A33.8,33.8,0,0,0,246.156,210.9c9.474,5.167,21.864,9.565,37.694,11.2v9.778A28.509,28.509,0,0,1,255.372,260.355Z" class="svgShape colorgradient-16 selectable"></path></svg></g></svg>