<svg id="SvgjsSvg1066" width="288" height="288" xmlns="http://www.w3.org/2000/svg" version="1.1" xmlns:xlink="http://www.w3.org/1999/xlink" xmlns:svgjs="http://svgjs.com/svgjs"><circle id="SvgjsCircle1106" r="144" cx="144" cy="144" transform="matrix(0.75,0,0,0.75,36,36)" fill="#045478"></circle><defs id="SvgjsDefs1067"></defs><g id="SvgjsG1068" transform="matrix(0.48,0,0,0.48,74.88010761260986,74.88000297546387)"><svg xmlns="http://www.w3.org/2000/svg" enable-background="new 0 0 92 92" viewBox="0 0 92 92" width="288" height="288"><path fill="#efd6d3" d="M77.43347 29.40399H53.58752c-4.23828 0-7.67432 3.43579-7.67432 7.67431 0 4.2384 3.43604 7.67432 7.67432 7.67432h23.84595c4.23828 0 7.67432-3.43591 7.67432-7.67432C85.10779 32.83978 81.67175 29.40399 77.43347 29.40399zM63.06555 54.47064H24.40686c-4.23828 0-7.67432 3.43604-7.67432 7.67432 0 4.23853 3.43604 7.67432 7.67432 7.67432h38.65869c4.23853 0 7.67432-3.43579 7.67432-7.67432C70.73987 57.90667 67.30408 54.47064 63.06555 54.47064zM27.77258 37.0783c0-4.23853-3.43604-7.67431-7.67432-7.67431H8.98645c-4.23828 0-7.67432 3.43579-7.67432 7.67431 0 4.2384 3.43604 7.67432 7.67432 7.67432h11.11182C24.33655 44.75262 27.77258 41.31671 27.77258 37.0783z" class="svgShape colorfdddd6-0 selectable"></path><circle cx="79.703" cy="62.145" r="1.568" fill="#fdddd6" class="svgShape colorfdddd6-1 selectable"></circle><path fill="#f3765d" d="M31.50255,21.2461v30.43903c0,2.80183,6.79056,5.07317,15.16715,5.07317
					s15.16715-2.27134,15.16715-5.07317V21.2461" class="svgShape colorf3765d-2 selectable"></path><ellipse cx="46.67" cy="21.246" fill="#fd7458" rx="15.167" ry="5.073" class="svgShape colorf3765d-3 selectable"></ellipse><path fill="#ea9584" d="M61.83685 31.39244c0 2.80183-6.79057 5.07317-15.16715 5.07317s-15.16715-2.27134-15.16715-5.07317M61.83685 41.53879c0 2.80183-6.79057 5.07317-15.16715 5.07317s-15.16715-2.27134-15.16715-5.07317" class="svgShape colorf3765d-4 selectable"></path><circle cx="40.66" cy="30.794" r="1.371" fill="#f3eded" class="svgShape colorffffff-5 selectable"></circle><circle cx="46.67" cy="30.794" r="1.371" fill="#ffffff" class="svgShape colorffffff-6 selectable"></circle><circle cx="52.679" cy="30.794" r="1.371" fill="#ffffff" class="svgShape colorffffff-7 selectable"></circle><circle cx="40.66" cy="41.539" r="1.372" fill="#ffffff" class="svgShape colorffffff-8 selectable"></circle><circle cx="46.67" cy="41.539" r="1.372" fill="#ffffff" class="svgShape colorffffff-9 selectable"></circle><circle cx="52.679" cy="41.539" r="1.372" fill="#ffffff" class="svgShape colorffffff-10 selectable"></circle><circle cx="40.66" cy="51.392" r="1.371" fill="#ffffff" class="svgShape colorffffff-11 selectable"></circle><circle cx="46.67" cy="51.392" r="1.371" fill="#ffffff" class="svgShape colorffffff-12 selectable"></circle><circle cx="52.679" cy="51.392" r="1.371" fill="#ffffff" class="svgShape colorffffff-13 selectable"></circle><path fill="#ffffff" d="M60.40974,71.57024v5.06846c0,1.39961,3.39213,2.53423,7.57653,2.53423s7.57653-1.13461,7.57653-2.53423
				v-5.06846" class="svgShape colorffffff-14 selectable"></path><ellipse cx="67.986" cy="71.57" fill="#ffffff" rx="7.577" ry="2.534" class="svgShape colorffffff-15 selectable"></ellipse><path fill="#ffffff" d="M17.77659,71.57024v5.06846c0,1.39961,3.39213,2.53423,7.57653,2.53423s7.57653-1.13461,7.57653-2.53423
				v-5.06846" class="svgShape colorffffff-16 selectable"></path><ellipse cx="25.353" cy="71.57" fill="#ffffff" rx="7.577" ry="2.534" class="svgShape colorffffff-17 selectable"></ellipse><path fill="#010101" d="M67.48621 65.72943v1.20117c0 .27637.22388.5.5.5s.5-.22363.5-.5v-1.20117c0-2.66553-2.16846-4.83448-4.83398-4.83448H47.1698v-3.14478c7.86792-.08472 15.66699-2.16064 15.66699-6.06519V21.24603c0-3.9873-8.13306-6.07324-16.16699-6.07324-8.03418 0-16.16724 2.08594-16.16724 6.07324v30.43896c0 3.90454 7.79932 5.98047 15.66724 6.06519v3.14478H29.68713c-2.66553 0-4.83398 2.16895-4.83398 4.83448v1.20117c0 .27637.22388.5.5.5s.5-.22363.5-.5v-1.20117c0-2.11426 1.71997-3.83448 3.83398-3.83448 11.879 0 22.08609 0 33.96509 0C65.76624 61.89495 67.48621 63.61517 67.48621 65.72943zM60.83679 31.39252c0 1.66064-5.5188 4.07324-14.16699 4.07324s-14.16724-2.4126-14.16724-4.07324v-7.06836c2.90234 1.97351 8.55396 2.99512 14.16724 2.99512 5.61304 0 11.26489-1.02161 14.16699-2.99512V31.39252zM32.50256 34.47064c2.90234 1.97351 8.55396 2.99512 14.16724 2.99512 5.61304 0 11.26489-1.02161 14.16699-2.99512V41.539c0 1.66064-5.5188 4.07275-14.16699 4.07275S32.50256 43.19964 32.50256 41.539V34.47064zM46.6698 17.17279c8.64819 0 14.16699 2.4126 14.16699 4.07324s-5.5188 4.07324-14.16699 4.07324-14.16724-2.4126-14.16724-4.07324S38.02161 17.17279 46.6698 17.17279zM32.50256 51.68499v-7.06824c2.90234 1.97339 8.55396 2.995 14.16724 2.995 5.61304 0 11.26489-1.02161 14.16699-2.995v7.06824c0 1.66064-5.5188 4.07324-14.16699 4.07324S32.50256 53.34564 32.50256 51.68499zM67.98621 68.53607c-4.01343 0-8.07642 1.04199-8.07642 3.03418v5.06836c0 1.99219 4.06299 3.03418 8.07642 3.03418 4.01367 0 8.07666-1.04199 8.07666-3.03418v-5.06836C76.06287 69.57806 71.99988 68.53607 67.98621 68.53607zM67.98621 69.53607c4.31982 0 7.07666 1.20459 7.07666 2.03418s-2.75684 2.03418-7.07666 2.03418-7.07642-1.20459-7.07642-2.03418S63.66638 69.53607 67.98621 69.53607zM67.98621 78.67279c-4.31982 0-7.07642-1.20459-7.07642-2.03418v-3.52979c1.4502.9856 4.27295 1.49561 7.07642 1.49561 2.80371 0 5.62646-.51001 7.07666-1.49561v3.52979C75.06287 77.4682 72.30603 78.67279 67.98621 78.67279zM25.35315 68.53607c-4.01367 0-8.07666 1.04199-8.07666 3.03418v5.06836c0 1.99219 4.06299 3.03418 8.07666 3.03418 4.01343 0 8.07642-1.04199 8.07642-3.03418v-5.06836C33.42957 69.57806 29.36658 68.53607 25.35315 68.53607zM25.35315 69.53607c4.31982 0 7.07642 1.20459 7.07642 2.03418s-2.75659 2.03418-7.07642 2.03418-7.07666-1.20459-7.07666-2.03418S21.03333 69.53607 25.35315 69.53607zM25.35315 78.67279c-4.31982 0-7.07666-1.20459-7.07666-2.03418v-3.52979c1.4502.9856 4.27295 1.49561 7.07666 1.49561 2.80347 0 5.62646-.51001 7.07642-1.49561v3.52979C32.42957 77.4682 29.67297 78.67279 25.35315 78.67279z" class="svgShape color010101-18 selectable"></path><circle cx="64.984" cy="76.339" r=".685" fill="#f3765d" class="svgShape colorf3765d-19 selectable"></circle><circle cx="67.986" cy="76.339" r=".685" fill="#f3765d" class="svgShape colorf3765d-20 selectable"></circle><circle cx="70.988" cy="76.339" r=".685" fill="#f3765d" class="svgShape colorf3765d-21 selectable"></circle><circle cx="22.351" cy="76.339" r=".685" fill="#f3765d" class="svgShape colorf3765d-22 selectable"></circle><circle cx="25.353" cy="76.339" r=".685" fill="#f3765d" class="svgShape colorf3765d-23 selectable"></circle><circle cx="28.355" cy="76.339" r=".685" fill="#f3765d" class="svgShape colorf3765d-24 selectable"></circle><g><circle cx="71.304" cy="12.82" r="2.691" fill="#84b0de" class="svgShape color84b0de-26 selectable"></circle></g><g><circle cx="88.578" cy="48.722" r="2.11" fill="#fef2d8" class="svgShape colorfef2d8-28 selectable"></circle></g><g><circle cx="48.238" cy="80.303" r="1.568" fill="#d2edf6" class="svgShape colord2edf6-30 selectable"></circle></g><g><circle cx="6.72" cy="58.337" r="1.568" fill="#cf95c2" class="svgShape colorcf95c2-32 selectable"></circle></g><g><circle cx="20.098" cy="15.859" r="1.568" fill="#d4ebdf" class="svgShape colord4ebdf-34 selectable"></circle></g></svg></g></svg>