<svg id="SvgjsSvg1123" width="288" height="288" xmlns="http://www.w3.org/2000/svg" version="1.1" xmlns:xlink="http://www.w3.org/1999/xlink" xmlns:svgjs="http://svgjs.com/svgjs"><defs id="SvgjsDefs1124"></defs><g id="SvgjsG1125" transform="matrix(1,0,0,1,0,0)"><svg xmlns="http://www.w3.org/2000/svg" viewBox="0 0 32 32" width="288" height="288"><circle cx="16" cy="16" r="15" fill="#eef8fd" class="svgShape coloreef5fd-0 selectable"></circle><circle cx="16" cy="16" r="15" fill="#eef8fd" class="svgShape coloreef5fd-1 selectable"></circle><path fill="#eef8fd" d="M31,16A15,15,0,0,0,16,1V31A15,15,0,0,0,31,16Z" class="svgShape colord7e2f2-2 selectable"></path><path fill="#f79c6d" d="M23.6,13.32,13.08,8.06a3,3,0,0,0-4.34,2.68V21.26a3,3,0,0,0,1.42,2.55,3,3,0,0,0,1.58.45,2.93,2.93,0,0,0,1.34-.32L23.6,18.68a3,3,0,0,0,0-5.36Z" class="svgShape colorff9797-3 selectable"></path><path fill="#f79c6d" d="M23.6,13.32,16,9.52v13l7.6-3.8a3,3,0,0,0,0-5.36Z" class="svgShape colore47979-4 selectable"></path></svg></g></svg>