<svg id="SvgjsSvg1034" width="288" height="288" xmlns="http://www.w3.org/2000/svg" version="1.1" xmlns:xlink="http://www.w3.org/1999/xlink" xmlns:svgjs="http://svgjs.com/svgjs"><circle id="SvgjsCircle1042" r="144" cx="144" cy="144" transform="matrix(0.66,0,0,0.66,48.959999999999994,48.959999999999994)" fill="#045478"></circle><defs id="SvgjsDefs1035"></defs><g id="SvgjsG1036" transform="matrix(0.43,0,0,0.43,82.03813344955444,82.08003479003906)"><svg xmlns="http://www.w3.org/2000/svg" viewBox="0 0 32 32" width="288" height="288"><path fill="#ffffff" d="M16 13.09a8 8 0 0 1 0 13.83 8 8 0 0 1 0-13.83Z" class="svgShape colorf2f2f2-0 selectable"></path><path fill="#b3d4e4" d="M24 12a8 8 0 1 0-8 8 8 8 0 0 0 8-8ZM16 2A10 10 0 1 1 6 12 10 10 0 0 1 16 2Z" class="svgShape color6e6e6e-1 selectable"></path><path fill="#a7c6d6" d="M20 20a7.94 7.94 0 0 0-4-6.91 8 8 0 0 0 0 13.83A8 8 0 0 0 20 20Zm10 0a10 10 0 0 1-10 10 9.92 9.92 0 0 1-4-.84 9.92 9.92 0 0 1-4 .84 10 10 0 0 1-1.11-19.94 1 1 0 0 1 .22 2 8 8 0 1 0 2.65 15.74A10 10 0 0 1 15.55 11H16.44a10 10 0 0 1 1.8 16.76A7.91 7.91 0 0 0 20 28a8 8 0 0 0 .89-15.95 1 1 0 0 1-.89-1.11 1 1 0 0 1 1.1-.88A10 10 0 0 1 30 20Z" class="svgShape color1c6ea5-2 selectable"></path></svg></g></svg>