<?xml version="1.0" standalone="no"?><svg xmlns="http://www.w3.org/2000/svg" viewBox="0 0 1440 320"><path fill="#C8CED0" fill-opacity="1" d="M0,128L18.5,106.7C36.9,85,74,43,111,26.7C147.7,11,185,21,222,74.7C258.5,128,295,224,332,272C369.2,320,406,320,443,272C480,224,517,128,554,117.3C590.8,107,628,181,665,197.3C701.5,213,738,171,775,133.3C812.3,96,849,64,886,58.7C923.1,53,960,75,997,101.3C1033.8,128,1071,160,1108,181.3C1144.6,203,1182,213,1218,181.3C1255.4,149,1292,75,1329,64C1366.2,53,1403,107,1422,133.3L1440,160L1440,320L1421.5,320C1403.1,320,1366,320,1329,320C1292.3,320,1255,320,1218,320C1181.5,320,1145,320,1108,320C1070.8,320,1034,320,997,320C960,320,923,320,886,320C849.2,320,812,320,775,320C738.5,320,702,320,665,320C627.7,320,591,320,554,320C516.9,320,480,320,443,320C406.2,320,369,320,332,320C295.4,320,258,320,222,320C184.6,320,148,320,111,320C73.8,320,37,320,18,320L0,320Z"></path></svg>