<svg id="SvgjsSvg1107" width="288" height="288" xmlns="http://www.w3.org/2000/svg" version="1.1" xmlns:xlink="http://www.w3.org/1999/xlink" xmlns:svgjs="http://svgjs.com/svgjs"><defs id="SvgjsDefs1108"></defs><g id="SvgjsG1109" transform="matrix(1,0,0,1,0,0)"><svg xmlns="http://www.w3.org/2000/svg" viewBox="0 0 64 64" width="288" height="288"><g><circle cx="46" cy="24" r="1" fill="#045478" class="svgShape color000000-1 selectable"></circle><path d="M30.263 57.579A4.421 4.421 0 1 0 25.842 62a4.426 4.426 0 0 0 4.421-4.421zM25.842 60a2.421 2.421 0 1 1 2.421-2.421A2.424 2.424 0 0 1 25.842 60zm23.263 2a4.421 4.421 0 1 0-4.421-4.421A4.426 4.426 0 0 0 49.105 62zm0-6.842a2.421 2.421 0 1 1-2.421 2.421 2.424 2.424 0 0 1 2.421-2.421zM3.263 10h4.761l13.452 39.01a1.056 1.056 0 0 0 .948.674h30.1a1 1 0 1 0 0-2h-29.39l-1.4-4.055L52.643 40.1a1 1 0 0 0 .83-.662l8.21-23.27a1.006 1.006 0 0 0-.943-1.332h-16.6a9 9 0 1 0-16.272 0h-16.06L9.682 8.674A1.079 1.079 0 0 0 8.737 8H3.263a1 1 0 0 0 0 2zM36 4a7.008 7.008 0 0 1 7 7 7 7 0 0 1-14 0 7.008 7.008 0 0 1 7-7zm-6.829 12.84a8.959 8.959 0 0 0 13.658 0h16.5L57.153 23l-7.16.051a1 1 0 0 0 .007 2h.007l6.438-.046L51.8 38.187l-30.732 3.505-5.738-16.639H42a1 1 0 0 0 0-2H14.64L12.5 16.84z" fill="#045478" class="svgShape color000000-2 selectable"></path><path d="M32 12h3v3a1 1 0 0 0 2 0v-3h3a1 1 0 0 0 0-2h-3V7a1 1 0 0 0-2 0v3h-3a1 1 0 0 0 0 2Z" fill="#045478" class="svgShape color000000-3 selectable"></path></g></svg></g></svg>