<svg id="SvgjsSvg1001" width="288" height="288" xmlns="http://www.w3.org/2000/svg" version="1.1" xmlns:xlink="http://www.w3.org/1999/xlink" xmlns:svgjs="http://svgjs.com/svgjs"><circle id="SvgjsCircle1024" r="144" cx="144" cy="144" transform="matrix(0.7599999999999999,0,0,0.7599999999999999,34.56000000000002,34.56000000000002)" fill="#045478"></circle><defs id="SvgjsDefs1002"></defs><g id="SvgjsG1008" transform="matrix(0.4652,0,0,0.4652,75.80790816040039,77.01119846992492)"><svg xmlns="http://www.w3.org/2000/svg" viewBox="0 0 64 64" width="288" height="288"><path fill="#ff5959" d="M51,56l3,7-4-3-2,3-2.15-7-1.14-3.71,2.51-2.51a.99.99,0,0,1,.71-.29h.28Z" class="svgShape colorf43030-0 selectable"></path><path fill="#cc0000" d="M45.85,56,48,63l2-3,4,3-1.607-3.751a2.089,2.089,0,0,0-1.92-1.265h0A2.088,2.088,0,0,1,48.506,56.6L46.38,50.62l-1.67,1.67Z" class="svgShape colorcc0033-1 selectable"></path><polygon fill="#ff5959" points="43.29 52.29 42.15 56 40 63 38 60 34 63 37 56 39.79 49.49 40.49 49.49 43.29 52.29" class="svgShape colorf43030-2 selectable"></polygon><path fill="#cc0000" d="M38,60l2,3,2.15-7,1.14-3.71-1.964-1.964-1.888,5.822a2.067,2.067,0,0,1-1.857,1.427h0a2.069,2.069,0,0,0-1.792,1.251L34,63Z" class="svgShape colorcc0033-3 selectable"></path><path fill="#facf5a" d="M55.29,40.29a1.014,1.014,0,0,1,0,1.42l-2.51,2.51a.99.99,0,0,0-.29.71v3.56a1,1,0,0,1-1,1H47.93a.99.99,0,0,0-.71.29l-2.51,2.51a1.008,1.008,0,0,1-1.42,0l-2.8-2.8H36.51a1,1,0,0,1-1-1V44.93a.99.99,0,0,0-.29-.71l-2.51-2.51a1.008,1.008,0,0,1,0-1.42l2.51-2.51a.99.99,0,0,0,.29-.71V33.51a1,1,0,0,1,1-1h3.56a.99.99,0,0,0,.71-.29l2.51-2.51a1.008,1.008,0,0,1,1.42,0l2.51,2.51a.99.99,0,0,0,.71.29h3.56a1,1,0,0,1,1,1v3.98Z" class="svgShape colorfbb253-4 selectable"></path><path fill="#f22e2e" d="M55.29,40.29l-2.8-2.8V33.51a.99.99,0,0,0-.749-.949c.008.193.034.382.034.576,0,8.072-7.075,14.717-16.2,15.665a.993.993,0,0,0,.937.688h3.98l2.8,2.8a1.008,1.008,0,0,0,1.42,0l2.51-2.51a.99.99,0,0,1,.71-.29h3.56a1,1,0,0,0,1-1V44.93a.99.99,0,0,1,.29-.71l2.51-2.51a1.014,1.014,0,0,0,0-1.42Z" class="svgShape colorf28a2e-5 selectable"></path><path fill="#faf7ed" d="M43.29,52.29,42.15,56h3.7l-1.14-3.71A1.008,1.008,0,0,1,43.29,52.29Z" class="svgShape coloredf4fa-6 selectable"></path><path fill="#faf7ed" d="M52.5,1h-42A4.507,4.507,0,0,1,15,5.5V56H37l2.79-6.51H36.51a1,1,0,0,1-1-1V44.93a.99.99,0,0,0-.29-.71l-2.51-2.51a1.008,1.008,0,0,1,0-1.42l2.51-2.51a.99.99,0,0,0,.29-.71V33.51a1,1,0,0,1,1-1h3.56a.99.99,0,0,0,.71-.29l2.51-2.51a1.008,1.008,0,0,1,1.42,0l2.51,2.51a.99.99,0,0,0,.71.29h3.56a1,1,0,0,1,1,1v3.98l2.8,2.8a1.014,1.014,0,0,1,0,1.42l-2.51,2.51a.99.99,0,0,0-.29.71v3.56a1,1,0,0,1-1,1H48.21L51,56h6V5.5A4.494,4.494,0,0,0,52.5,1Z" class="svgShape coloredf4fa-7 selectable"></path><path fill="#cde3e2" d="M43.29 52.29L42.15 56h3.7l-1.14-3.71A1.008 1.008 0 0 1 43.29 52.29zM44.877 29.877L47.22 32.22a.99.99 0 0 0 .71.29h3.56a1 1 0 0 1 1 1v3.98l2.8 2.8a1.014 1.014 0 0 1 0 1.42l-2.51 2.51a.99.99 0 0 0-.29.71v3.56a1 1 0 0 1-1 1H48.21L51 56h6V5.5A4.494 4.494 0 0 0 52.5 1H44.577A79.193 79.193 0 0 1 46 17.72 65.769 65.769 0 0 1 44.877 29.877zM37 56l2.79-6.51H36.51a1 1 0 0 1-1-1v-.705A9.929 9.929 0 0 1 29 50c-3.16-.216-9.009 1.753-14 4.746V56z" class="svgShape colorcdd8e3-8 selectable"></path><circle cx="44" cy="41" r="5" fill="#50979a" class="svgShape color505a9a-9 selectable"></circle><path fill="#085f63" d="M44,36a4.913,4.913,0,0,0-.635.064,4.958,4.958,0,0,1-3.6,7.568A4.994,4.994,0,1,0,44,36Z" class="svgShape color353b71-10 selectable"></path><path fill="#fcf4e0" d="M15 19.5V51H7c0-5 .39-6.3 4-10S15 19.5 15 19.5zM15 5.5V15H6V5.5a4.5 4.5 0 0 1 9 0z" class="svgShape colorfceee0-11 selectable"></path><path fill="#49beb7" d="M51 7H21a1 1 0 0 1 0-2H51a1 1 0 0 1 0 2zM51 11H21a1 1 0 0 1 0-2H51a1 1 0 0 1 0 2zM51 15H21a1 1 0 1 1 0-2H51a1 1 0 0 1 0 2zM51 19H21a1 1 0 1 1 0-2H51a1 1 0 0 1 0 2zM51 23H21a1 1 0 1 1 0-2H51a1 1 0 0 1 0 2zM38 27H21a1 1 0 1 1 0-2H38a1 1 0 0 1 0 2z" class="svgShape color9aa2aa-12 selectable"></path></svg></g></svg>