<svg id="SvgjsSvg1057" width="288" height="288" xmlns="http://www.w3.org/2000/svg" version="1.1" xmlns:xlink="http://www.w3.org/1999/xlink" xmlns:svgjs="http://svgjs.com/svgjs"><circle id="SvgjsCircle1075" r="144" cx="144" cy="144" transform="matrix(0.7916,0,0,0.7916,30.009600000000006,30.009600000000006)" fill="#ffe08f"></circle><defs id="SvgjsDefs1058"></defs><g id="SvgjsG1059" transform="matrix(0.4652,0,0,0.4652,77.01080575065613,77.01120306015015)"><svg xmlns="http://www.w3.org/2000/svg" viewBox="0 0 64 64" width="288" height="288"><g><rect width="46" height="21" x="7.104" y="32.018" fill="#884f04" rx="2" class="svgShape color044388-1 selectable"></rect><path fill="#884f04" d="M32.811 27.31a1.112 1.112 0 0 0-1.707.294v-4.586a1 1 0 0 0-2 0v4.586l-.293-.293a1 1 0 0 0-1.414 1.414l2 2a1.008 1.008 0 0 0 1.414 0l2-2a1 1 0 0 0 0-1.414Z" class="svgShape color044388-2 selectable"></path><path d="M29.104 23.018h2v2h-2z" opacity=".1" fill="#000000" class="svgShape color000000-3 selectable"></path><rect width="46" height="21" x="7.104" y="3.018" fill="#d68316" rx="2" class="svgShape color168fd6-4 selectable"></rect><path d="M29.104 8.018h-15a1 1 0 0 1 0-2h15a1 1 0 0 1 0 2zm8 5h-23a1 1 0 0 1 0-2h23a1 1 0 0 1 0 2zm-15 5h-8a1 1 0 0 1 0-2h8a1 1 0 0 1 0 2zm7 19h-15a1 1 0 0 1 0-2h15a1 1 0 0 1 0 2zm8 5h-23a1 1 0 0 1 0-2h23a1 1 0 0 1 0 2z" opacity=".1" fill="#000000" class="svgShape color000000-5 selectable"></path><path fill="#ffffff" d="M29.104 9.018h-15a1 1 0 0 1 0-2h15a1 1 0 0 1 0 2zm8 5h-23a1 1 0 0 1 0-2h23a1 1 0 0 1 0 2zm-15 5h-8a1 1 0 0 1 0-2h8a1 1 0 0 1 0 2zm7 19h-15a1 1 0 0 1 0-2h15a1 1 0 0 1 0 2zm8 5h-23a1 1 0 0 1 0-2h23a1 1 0 0 1 0 2z" class="svgShape colorffffff-6 selectable"></path><path d="M53.104 5.018v16c-10.603-.391-10.595-15.613 0-16Z" opacity=".1" fill="#000000" class="svgShape color000000-7 selectable"></path><path fill="#fa9818" d="M61.104 14.018a8 8 0 0 1-8 8c-10.6-.392-10.597-15.61 0-16a8 8 0 0 1 8 8Z" class="svgShape colorccdde7-8 selectable"></path><path fill="#d68316" d="M52.104 17.018a.997.997 0 0 1-.707-.293l-2-2a1 1 0 0 1 1.414-1.414l1.293 1.293 3.293-3.293a1 1 0 0 1 1.414 1.414l-4 4a.997.997 0 0 1-.707.293Z" class="svgShape color168fd6-9 selectable"></path><path d="m24.264 52.528-.28.49H9.104a2.006 2.006 0 0 1-2-2v-9.25l1.21.7c.69.35 1.25-.49 1.89-.68a.738.738 0 0 0 .43-.67v-2.37a.736.736 0 0 1 .74-.73h4.51a.736.736 0 0 1 .74.73v2.37a.738.738 0 0 0 .43.67c.64.19 1.2 1.03 1.89.68l2.06-1.19a.734.734 0 0 1 1 .27l2.26 3.91a.746.746 0 0 1-.27 1.01l-2.05 1.18c-.51.28-.32.88-.33 1.35.01.47-.18 1.06.33 1.34l2.05 1.18a.748.748 0 0 1 .27 1.01Z" opacity=".1" fill="#000000" class="svgShape color000000-10 selectable"></path><path fill="#fa9818" d="M21.611 50.007c.01-.47-.175-1.069.331-1.343l2.054-1.186a.733.733 0 0 0 .268-1.002l-2.26-3.914a.733.733 0 0 0-1.002-.269l-2.055 1.187c-.696.354-1.255-.484-1.89-.678a.744.744 0 0 1-.434-.667v-2.37a.733.733 0 0 0-.734-.734h-4.52a.733.733 0 0 0-.733.734v2.37a.744.744 0 0 1-.435.667c-.636.192-1.193 1.033-1.89.678l-2.055-1.187a.733.733 0 0 0-1.002.269l-2.26 3.914a.733.733 0 0 0 .269 1.002l2.053 1.186c.508.275.322.872.331 1.343-.009.47.176 1.068-.33 1.343l-2.054 1.185a.733.733 0 0 0-.269 1.002l2.26 3.914a.733.733 0 0 0 1.002.269l2.055-1.187c.696-.353 1.256.484 1.89.678a.744.744 0 0 1 .435.668v2.37a.733.733 0 0 0 .733.733h4.52a.733.733 0 0 0 .734-.733v-2.37a.744.744 0 0 1 .435-.668c.635-.192 1.192-1.033 1.89-.678l2.054 1.187a.733.733 0 0 0 1.002-.268l2.26-3.915a.733.733 0 0 0-.268-1.002l-2.054-1.185c-.508-.276-.322-.873-.33-1.343Z" class="svgShape colorccdde7-11 selectable"></path><path fill="#ffffff" d="M18.763 50.007c-.21 6.786-10.06 6.784-10.268 0 .21-6.787 10.06-6.785 10.268 0Z" class="svgShape colorffffff-12 selectable"></path></g></svg></g></svg>