<svg id="SvgjsSvg1022" width="288" height="288" xmlns="http://www.w3.org/2000/svg" version="1.1" xmlns:xlink="http://www.w3.org/1999/xlink" xmlns:svgjs="http://svgjs.com/svgjs"><circle id="SvgjsCircle1042" r="144" cx="144" cy="144" transform="matrix(0.7916,0,0,0.7916,30.009600000000006,30.009600000000006)" fill="#ffe08f"></circle><defs id="SvgjsDefs1023"></defs><g id="SvgjsG1024" transform="matrix(0.47000000000000003,0,0,0.47000000000000003,76.3319285583496,76.32)"><svg xmlns="http://www.w3.org/2000/svg" viewBox="0 0 64 64" width="288" height="288"><path fill="#285066" d="m41,2H3c-.55,0-1,.45-1,1v48c0,.55.45,1,1,1h5c.55,0,1-.45,1-1V9h32c.55,0,1-.45,1-1V3c0-.55-.45-1-1-1Z" class="svgShape color285066-0 selectable"></path><path fill="#3f6e8c" d="m46,7H8c-.55,0-1,.45-1,1v48c0,.55.45,1,1,1h5c.55,0,1-.45,1-1V14h32c.55,0,1-.45,1-1v-5c0-.55-.45-1-1-1Z" class="svgShape color3f6e8c-1 selectable"></path><rect width="40" height="50" x="12" y="12" fill="#66ccff" rx="1" ry="1" class="svgShape colorbce8f3-2 selectable"></rect><rect width="28" height="6" x="18" y="19" fill="#d86666" rx="1" ry="1" class="svgShape colord86666-3 selectable"></rect><path fill="#ffffff" d="M45 29h-26c-.55 0-1 .45-1 1s.45 1 1 1h26c.55 0 1-.45 1-1s-.45-1-1-1ZM35 35h-16c-.55 0-1 .45-1 1s.45 1 1 1h16c.55 0 1-.45 1-1s-.45-1-1-1ZM35 41h-16c-.55 0-1 .45-1 1s.45 1 1 1h16c.55 0 1-.45 1-1s-.45-1-1-1ZM35 47h-16c-.55 0-1 .45-1 1s.45 1 1 1h16c.55 0 1-.45 1-1s-.45-1-1-1ZM35 53h-16c-.55 0-1 .45-1 1s.45 1 1 1h16c.55 0 1-.45 1-1s-.45-1-1-1Z" class="svgShape colorffffff-4 selectable"></path><path fill="#f2c186" d="m61.45,37.57l-11-5.47c-.28-.14-.61-.14-.89,0l-11,5.47c-.34.17-.55.52-.55.9v9.6c0,10.22,11.59,13.86,11.71,13.89.09.03.19.04.29.04s.2-.01.29-.04c.12-.04,11.71-3.67,11.71-13.89v-9.6c0-.38-.21-.73-.55-.9Z" class="svgShape colorf2c186-5 selectable"></path><circle cx="50" cy="47" r="8" fill="#d86666" class="svgShape colord86666-6 selectable"></circle><path fill="#ffffff" d="m48.69,50.19c-.26,0-.51-.1-.71-.29l-1.75-1.75c-.39-.39-.39-1.02,0-1.41s1.02-.39,1.41,0l1.04,1.04,3.67-3.67c.39-.39,1.02-.39,1.41,0s.39,1.02,0,1.41l-4.38,4.38c-.2.2-.45.29-.71.29Z" class="svgShape colorffffff-7 selectable"></path></svg></g></svg>