<svg id="SvgjsSvg1043" width="288" height="288" xmlns="http://www.w3.org/2000/svg" version="1.1" xmlns:xlink="http://www.w3.org/1999/xlink" xmlns:svgjs="http://svgjs.com/svgjs"><circle id="SvgjsCircle1056" r="144" cx="144" cy="144" transform="matrix(0.7916,0,0,0.7916,30.009600000000006,30.009600000000006)" fill="#ffe08f"></circle><defs id="SvgjsDefs1044"></defs><g id="SvgjsG1045" transform="matrix(0.4652,0,0,0.4652,77.0112,77.01120357017517)"><svg xmlns="http://www.w3.org/2000/svg" viewBox="0 0 64 64" width="288" height="288"><circle cx="41.34" cy="27.66" r="11.45" fill="#767fad" transform="rotate(-87.048 41.333 27.656)" class="svgShape color57bb6e-0 selectable"></circle><path fill="#8792fd" d="m51.3 41.41-6.19 10.71-2.17-8.52 1-2.19.92-2.03h.01c2.27.36 4.43 1.05 6.43 2.03zM39.72 43.6l-2.15 8.53-6.19-10.72h.01a22.43 22.43 0 0 1 6.41-2.03h.01l.92 2.03.99 2.19z" class="svgShape colorefefef-1 selectable"></path><path fill="#3323e8" d="m45.11 52.12-3.78 6.54-3.76-6.53 2.15-8.53-.99-2.19-.92-2.03c1.15-.18 2.33-.27 3.53-.27s2.37.09 3.52.27l-.92 2.03-1 2.19 2.17 8.52z" class="svgShape colore82327-2 selectable"></path><path fill="#767fad" d="M64 61.8H18.67c0-8.95 5.18-16.7 12.71-20.39l6.19 10.72 3.76 6.53 3.78-6.54 6.19-10.71C58.83 45.1 64 52.85 64 61.8z" class="svgShape color57bb6e-3 selectable"></path><path fill="#7d8ce0" d="M14.94 2.2c8.25 0 14.94 5.16 14.94 11.53 0 3.37-1.87 6.4-4.86 8.51l.1 4.14-4.28-2.06c-1.81.6-3.81.94-5.91.94C6.69 25.27 0 20.1 0 13.73 0 7.37 6.69 2.2 14.94 2.2z" class="svgShape colorffd926-4 selectable"></path><path fill="#1c3ee9" d="M7.86 11.88c-1.02 0-1.85.83-1.85 1.85s.83 1.85 1.85 1.85 1.85-.83 1.85-1.85-.83-1.85-1.85-1.85z" class="svgShape colore9c61c-5 selectable"></path><circle cx="14.94" cy="13.74" r="1.85" fill="#1c3ee9" class="svgShape colore9c61c-6 selectable"></circle><path fill="#1c3ee9" d="M22.03 11.88c-1.02 0-1.85.83-1.85 1.85s.83 1.85 1.85 1.85 1.85-.83 1.85-1.85-.83-1.85-1.85-1.85z" class="svgShape colore9c61c-7 selectable"></path></svg></g></svg>