<svg id="SvgjsSvg1067" width="288" height="288" xmlns="http://www.w3.org/2000/svg" version="1.1" xmlns:xlink="http://www.w3.org/1999/xlink" xmlns:svgjs="http://svgjs.com/svgjs"><circle id="SvgjsCircle1083" r="144" cx="144" cy="144" transform="matrix(0.7916,0,0,0.7916,30.009600000000006,30.009600000000006)" fill="#045478"></circle><defs id="SvgjsDefs1068"></defs><g id="SvgjsG1069" transform="matrix(0.4652,0,0,0.4652,77.07137071228027,79.41280583496093)"><svg xmlns="http://www.w3.org/2000/svg" viewBox="0 0 32 32" width="288" height="288"><path fill="#ebf4fb" style="line-height:normal;text-indent:0;text-align:start;text-decoration-line:none;text-decoration-style:solid;text-decoration-color:#000;text-transform:none;block-progression:tb;isolation:auto;mix-blend-mode:normal" d="M8.51 1042.422a.5.5 0 0 0-.494.506v2.433c0 .563-.438 1-1 1H3.508a.5.5 0 1 0 0 1h3.508c1.1 0 2-.9 2-2v-2.433a.5.5 0 0 0-.506-.506z" color="#000" font-family="sans-serif" font-weight="400" overflow="visible" transform="translate(0 -1020.362)" class="svgShape color576d7e-0 selectable"></path><path fill="#4682b5" d="m10.017 16-.5 7h-2.5v-7.32h3z" class="svgShape color2b4255-1 selectable"></path><path fill="#cad1d8" fill-rule="evenodd" style="line-height:normal;text-indent:0;text-align:start;text-decoration-line:none;text-decoration-style:solid;text-decoration-color:#000;text-transform:none;block-progression:tb;isolation:auto;mix-blend-mode:normal" d="M19.516 1029.361v1h7v-1h-7z" color="#000" font-family="sans-serif" font-weight="400" overflow="visible" transform="translate(0 -1020.362)" class="svgShape colorcad1d8-2 selectable"></path><path fill="#cad1d8" d="M26.017 8.5h3v2h-3z" class="svgShape colorcad1d8-3 selectable"></path><path fill="#f8b84e" d="M16.017 8h3c.554 0 1 .446 1 1v1c0 .554-.446 1-1 1h-3c-.554 0-1-.446-1-1V9c0-.554.446-1 1-1z" class="svgShape colorf8b84e-4 selectable"></path><path fill="#7ca8d4" d="M6.017 12v3c0 .554.446 1 1 1h3c.554 0 1-.446 1-1v-3h-5z" class="svgShape color34485c-5 selectable"></path><path fill="#f8b84e" d="M5.017 12h-1c-.554 0-1-.446-1-1V8c0-.554.446-1 1-1h1" class="svgShape colorf8b84e-6 selectable"></path><path fill="#66ccff" d="M6.007 6h9.019c.549 0 .99.442.99.99v5.02c0 .548-.441.99-.99.99H6.007a.988.988 0 0 1-.99-.99V6.99c0-.548.441-.99.99-.99z" class="svgShape color34485c-7 selectable"></path><path fill="#576d7e" fill-rule="evenodd" style="line-height:normal;text-indent:0;text-align:start;text-decoration-line:none;text-decoration-style:solid;text-decoration-color:#000;text-transform:none;block-progression:tb;isolation:auto;mix-blend-mode:normal" d="M7.016 1026.361v7h1v-7h-1zm2 0v7h1v-7h-1z" color="#000" font-family="sans-serif" font-weight="400" overflow="visible" transform="translate(0 -1020.362)" class="svgShape color576d7e-8 selectable"></path><path fill="#2b4255" d="M6.017 13h5v1h-5z" class="svgShape color2b4255-9 selectable"></path><path fill="#576d7e" d="M25.017 9h1v1h-1z" class="svgShape color576d7e-10 selectable"></path></svg></g></svg>