<svg xmlns="http://www.w3.org/2000/svg" viewBox="0 0 16 16" id="user">
  <path fill="#231f20" d="M8 .987A7.02 7.02 0 0 0 .987 8a6.96 6.96 0 0 0 2.055 4.959A6.96 6.96 0 0 0 8 15.013c3.867 0 7.013-3.146 7.013-7.014S11.868.987 8 .987zM4.258 12.703a4.853 4.853 0 0 1 3.613-1.705c.024.001.047.007.071.007h.023c.022 0 .042-.006.064-.007a4.843 4.843 0 0 1 3.643 1.752A5.97 5.97 0 0 1 8 14.013a5.964 5.964 0 0 1-3.742-1.31zm1.696-4.709c0-1.097.892-1.988 2.012-1.988 1.097 0 1.988.892 1.988 2.012A1.987 1.987 0 0 1 8.03 10c-.029 0-.056-.005-.085-.005-.025 0-.049.004-.074.005a1.995 1.995 0 0 1-1.917-2.006z"></path>
</svg>
